<svg width="504" height="550" xmlns="http://www.w3.org/2000/svg" xmlns:xlink="http://www.w3.org/1999/xlink" xml:space="preserve" overflow="hidden"><g transform="translate(-1274 -192)"><g><path d="M1528.07 203.5C1555.98 203.5 1580.59 217.639 1595.12 239.144L1598.29 244.994 1608.93 243.922C1653.58 243.922 1689.78 280.118 1689.78 324.767L1689.78 324.781 1705.94 326.409C1742.78 333.948 1770.5 366.543 1770.5 405.611 1770.5 416.774 1768.24 427.407 1764.15 437.079L1759.29 446.034 1770.5 446.034 1770.5 526.878 1748.57 526.878 1747.3 532.514C1739.75 559.737 1725.5 585.521 1704.5 607.27L1654.92 658.6C1642.32 671.65 1628.18 682.32 1613.06 690.603L1608.79 692.677 1608.79 731.5 1447.21 731.5 1447.21 691.798 1435.04 684.889C1425.21 678.646 1415.87 671.325 1407.17 662.924L1355.83 613.355C1334.08 592.352 1318.93 567.082 1310.44 540.138L1306.96 526.878 1285.5 526.878 1285.5 446.034 1296.72 446.034 1291.85 437.079C1287.76 427.407 1285.5 416.774 1285.5 405.611 1285.5 360.962 1321.7 324.767 1366.36 324.767 1366.36 280.118 1402.56 243.922 1447.21 243.922L1457.85 244.994 1461.02 239.144C1475.55 217.639 1500.16 203.5 1528.07 203.5Z" stroke="#000000" stroke-width="14.8958" stroke-linecap="butt" stroke-linejoin="miter" stroke-miterlimit="8" stroke-opacity="1" fill="none" fill-rule="evenodd"/></g></g></svg>