<svg width="518" height="560" xmlns="http://www.w3.org/2000/svg" xmlns:xlink="http://www.w3.org/1999/xlink" xml:space="preserve" overflow="hidden"><g transform="translate(-1269 -187)"><g><path d="M1527.57 203C1555.48 203 1580.09 217.139 1594.62 238.644L1597.79 244.494 1608.43 243.422C1653.08 243.422 1689.28 279.618 1689.28 324.267L1689.28 324.281 1705.44 325.909C1742.28 333.448 1770 366.043 1770 405.111 1770 416.274 1767.74 426.908 1763.65 436.58L1758.78 445.534 1770 445.534 1770 526.378 1748.07 526.378 1746.8 532.014C1739.25 559.237 1725 585.021 1704 606.77L1654.42 658.1C1641.82 671.15 1627.67 681.821 1612.56 690.103L1608.29 692.177 1608.29 731 1446.71 731 1446.71 691.298 1434.54 684.39C1424.71 678.146 1415.37 670.825 1406.67 662.424L1355.33 612.855C1333.58 591.852 1318.43 566.582 1309.94 539.638L1306.46 526.378 1285 526.378 1285 445.534 1296.21 445.534 1291.35 436.58C1287.26 426.908 1285 416.274 1285 405.111 1285 360.462 1321.2 324.267 1365.86 324.267 1365.86 279.618 1402.06 243.422 1446.71 243.422L1457.35 244.494 1460.52 238.644C1475.05 217.139 1499.66 203 1527.57 203Z" stroke="#000000" stroke-width="27.5" stroke-linecap="butt" stroke-linejoin="miter" stroke-miterlimit="8" stroke-opacity="1" fill="none" fill-rule="evenodd"/><path d="M1447 691 1608.54 691.879" stroke="#000000" stroke-width="27.5" stroke-linecap="butt" stroke-linejoin="miter" stroke-miterlimit="8" stroke-opacity="1" fill="none" fill-rule="evenodd"/><path d="M1285 526 1769.91 526" stroke="#000000" stroke-width="27.5" stroke-linecap="butt" stroke-linejoin="miter" stroke-miterlimit="8" stroke-opacity="1" fill="none" fill-rule="evenodd"/><path d="M1285 446 1769.91 446" stroke="#000000" stroke-width="27.5" stroke-linecap="butt" stroke-linejoin="miter" stroke-miterlimit="8" stroke-opacity="1" fill="none" fill-rule="evenodd"/></g></g></svg>